<?xml version="1.0" encoding="utf-8"?>
<!-- Generator: Adobe Illustrator 24.3.0, SVG Export Plug-In . SVG Version: 6.00 Build 0)  -->
<svg version="1.1" id="Layer_1" xmlns="http://www.w3.org/2000/svg" xmlns:xlink="http://www.w3.org/1999/xlink" x="0px" y="0px"
	 viewBox="0 0 1920 1080" style="enable-background:new 0 0 1920 1080;" xml:space="preserve">
<style type="text/css">
	.st0{fill:#829FC3;}
	.st1{fill:url(#SVGID_1_);}
	.st2{fill:url(#SVGID_2_);}
	.st3{fill:url(#SVGID_3_);}
	.st4{fill:url(#SVGID_4_);}
</style>
<g>
	<g>
		<g>
			<path class="st0" d="M949.1,576.1l-21.7,55c-1.5,3.9-2.9,6.8-4.2,8.7c-1.3,1.9-3.6,2.9-6.9,2.9c-2.6,0-4.8-0.9-6.5-2.6
				c-1.8-1.8-2.6-3.7-2.6-5.7c0-1.5,0.2-2.8,0.6-4c0.4-1.2,1.2-3.3,2.5-6.2l69.4-171c2-5.4,4-9.3,5.8-11.9c1.8-2.6,4.9-3.9,9.2-3.9
				c4.3,0,7.2,1.2,8.9,3.7c1.7,2.5,3.7,6.4,6.1,11.8l72.5,170.5c1.3,3,2.1,5.1,2.5,6.4c0.4,1.3,0.6,2.7,0.6,4.2
				c0,1.9-0.8,3.8-2.5,5.8c-1.7,2-4.1,3.1-7.2,3.1c-3.1,0-5.4-1-6.8-3.1c-1.4-2-2.9-5-4.6-8.9l-22.2-54.7H949.1z M1035.5,560.5
				L994.4,460L955,560.5H1035.5z"/>
			<path class="st0" d="M1260,622.7c1.8,2.8,3.1,4.9,3.6,6.2c0.6,1.4,0.8,2.8,0.8,4.3c0,2.6-1,4.8-3.1,6.7c-2,1.8-4.4,2.8-6.9,2.8
				c-1.5,0-2.6-0.1-3.5-0.4c-0.8-0.3-1.7-0.8-2.6-1.7c-0.9-0.8-2-2.1-3.2-3.9c-1.2-1.8-2.7-4.1-4.6-7.1l-20.5-32.2
				c-6.8-10.5-12.7-19.1-17.6-25.5c-4.9-6.5-9.6-11.5-14-15c-4.4-3.5-9-5.9-13.7-7.1c-4.7-1.2-10.2-1.8-16.5-1.8h-28.9v78.8
				c0,1.9,0,3.7-0.1,5.6c-0.1,1.9-0.4,3.6-1,5.1c-0.6,1.6-1.4,2.8-2.6,3.7c-1.2,0.9-3,1.4-5.4,1.4c-2.4,0-4.3-0.5-5.6-1.4
				c-1.3-0.9-2.3-2.2-2.9-3.7c-0.7-1.6-1-3.3-1.1-5.1c-0.1-1.8-0.1-3.7-0.1-5.6V456.4c0-3.5,0.2-6.3,0.6-8.5
				c0.4-2.1,1.1-3.7,2.2-4.9c1.1-1.1,2.7-1.8,4.7-2.1c2-0.3,4.8-0.4,8.3-0.4h68c8.3,0,15.9,0.9,22.8,2.6c6.8,1.8,12.7,4.5,17.5,8.2
				c6.3,4.8,11.1,11,14.6,18.5c3.4,7.5,5.1,15.4,5.1,23.7c0,15.9-5,28.2-14.8,36.8c-9.9,8.6-23.1,13.9-39.6,16
				c5.9,3.5,11.5,8,16.8,13.3c5.3,5.4,10.8,12.5,16.5,21.4L1260,622.7z M1129.3,457v74.7h52.5c2,0,4.7,0,8.1-0.1
				c3.3-0.1,6.9-0.5,10.8-1.2c3.9-0.7,7.9-1.8,11.9-3.3c4.1-1.5,7.7-3.7,11-6.5c3.2-2.9,5.9-6.5,7.9-10.8c2-4.3,3.1-9.7,3.1-16
				c0-5.9-1.4-11.6-4.2-16.9c-2.8-5.4-6.8-9.6-11.9-12.8c-2-1.3-4.6-2.4-7.6-3.3c-3.1-0.9-6.2-1.7-9.6-2.2c-3.3-0.6-6.6-0.9-9.9-1.1
				c-3.2-0.2-6.2-0.3-8.7-0.3H1129.3z"/>
			<path class="st0" d="M1331.7,576.1l-21.7,55c-1.5,3.9-2.9,6.8-4.2,8.7c-1.3,1.9-3.6,2.9-6.9,2.9c-2.6,0-4.8-0.9-6.5-2.6
				c-1.8-1.8-2.6-3.7-2.6-5.7c0-1.5,0.2-2.8,0.6-4c0.4-1.2,1.2-3.3,2.5-6.2l69.4-171c2-5.4,4-9.3,5.8-11.9c1.8-2.6,4.9-3.9,9.2-3.9
				c4.3,0,7.2,1.2,8.9,3.7c1.7,2.5,3.7,6.4,6.1,11.8l72.5,170.5c1.3,3,2.1,5.1,2.5,6.4c0.4,1.3,0.6,2.7,0.6,4.2
				c0,1.9-0.8,3.8-2.5,5.8c-1.7,2-4.1,3.1-7.2,3.1c-3.1,0-5.4-1-6.8-3.1c-1.4-2-2.9-5-4.6-8.9l-22.2-54.7H1331.7z M1418,560.5
				L1376.9,460l-39.4,100.5H1418z"/>
		</g>
	</g>
	<g>
		<linearGradient id="SVGID_1_" gradientUnits="userSpaceOnUse" x1="639.8705" y1="521.9528" x2="693.4633" y2="686.8944">
			<stop  offset="7.979771e-03" style="stop-color:#9AC9E5"/>
			<stop  offset="0.3749" style="stop-color:#ACE8EF"/>
			<stop  offset="0.4046" style="stop-color:#B0E9F0"/>
			<stop  offset="0.6217" style="stop-color:#C7F1F7"/>
			<stop  offset="0.8252" style="stop-color:#D5F5FB"/>
			<stop  offset="1" style="stop-color:#DAF7FC"/>
		</linearGradient>
		<path class="st1" d="M841.9,540c0,31.5-7.5,61.3-20.8,87.6c-64.7-42.2-144.4-11.5-175.2,5.8c-33.2,18.7-58,25.5-110.2,27.4
			c-28,1-45.5-3.2-60.2-28.2c-9.1-16.8-15.6-35.2-19.4-54.5c95.2,23.9,160-10.5,191-39.4c36.1-33.6,82.6-43.5,82.6-43.5
			c46.6-10.1,84.9,1.9,109.8,14.8C841.1,519.7,841.9,529.8,841.9,540z"/>
		<linearGradient id="SVGID_2_" gradientUnits="userSpaceOnUse" x1="602.8644" y1="338.8313" x2="652.2161" y2="474.3067">
			<stop  offset="5.909644e-02" style="stop-color:#D4F0FD"/>
			<stop  offset="0.4104" style="stop-color:#E5D5FD"/>
			<stop  offset="1" style="stop-color:#FDBEEA"/>
		</linearGradient>
		<path class="st2" d="M812.6,437.3c-15.5-11-38-19.8-69.3-17.6c-30.1,2.2-57,14.3-81.8,30.7c-19.3,12.7-37.6,25.4-59.9,32.1
			c-22.5,6.7-46.6,8.4-69.8,5.3c-7.9-1-15.8-2.6-23.4-4.9c-9.9-3-19.8-7.6-27.4-14.8c-3.8-3.6-6.9-7.9-9.4-12.6
			c7.9-16.5,18.1-31.6,30.1-45.1c35.7-40,87.6-65.2,145.4-65.2c46.7,0,89.5,16.4,123,43.8C786.8,402.6,801.2,418.9,812.6,437.3z"/>
		<linearGradient id="SVGID_3_" gradientUnits="userSpaceOnUse" x1="621.6325" y1="439.3091" x2="650.663" y2="553.4955">
			<stop  offset="7.979770e-03" style="stop-color:#FEB5D3"/>
			<stop  offset="1" style="stop-color:#FCFAFA"/>
		</linearGradient>
		<path class="st3" d="M839.6,510c-25-12.9-63.2-24.9-109.8-14.8c0,0-46.5,9.9-82.6,43.5c-31.1,28.9-95.8,63.3-191,39.4
			c-2.4-12.3-3.7-25.1-3.7-38.1c0-30.2,6.9-58.9,19.2-84.4c2.5,4.7,5.6,9,9.4,12.6c7.6,7.2,17.4,11.8,27.4,14.8
			c7.7,2.3,15.5,3.9,23.4,4.9c23.2,3,47.3,1.4,69.8-5.3c22.4-6.7,40.7-19.4,59.9-32.1c24.9-16.4,51.8-28.6,81.8-30.7
			c31.4-2.3,53.8,6.6,69.3,17.6C826.1,459,835.5,483.6,839.6,510z"/>
		<linearGradient id="SVGID_4_" gradientUnits="userSpaceOnUse" x1="655.6475" y1="650.8748" x2="705.3774" y2="791.3738">
			<stop  offset="0" style="stop-color:#4C85A9"/>
			<stop  offset="0.3296" style="stop-color:#7B9CC0"/>
			<stop  offset="0.3495" style="stop-color:#7D9CC1"/>
			<stop  offset="0.7161" style="stop-color:#A097CC"/>
		</linearGradient>
		<path class="st4" d="M821.1,627.6c-32.1,63.6-98,107.2-174,107.2c-59.6,0-116.8-28-153.5-74.9c-6.7-8.6-12.1-17.8-18-26.9
			c12.4,16.7,33.4,25.6,54.1,27.4c26.5,2.4,53.1-3.7,77.6-13.6c30.9-12.4,58.4-30,91.5-36.8c30.1-6.2,62.1-6.8,91.6,2.9
			C801.2,616.5,811.6,621.4,821.1,627.6z"/>
	</g>
</g>
</svg>
